<mxfile host="app.diagrams.net" modified="2023-05-09T09:05:15.016Z" agent="Mozilla/5.0 (Macintosh; Intel Mac OS X 10_15_7) AppleWebKit/537.36 (KHTML, like Gecko) Chrome/112.0.0.0 Safari/537.36" version="21.2.9" etag="s-JSDt3wLs9LG-4gZwIp" type="github">
  <diagram name="第 1 页" id="SlJA2I-Qyu4VbDwptdL-">
    <mxGraphModel>
      <root>
        <mxCell id="0" />
        <mxCell id="1" parent="0" />
      </root>
    </mxGraphModel>
  </diagram>
</mxfile>
